<svg xmlns="http://www.w3.org/2000/svg" viewBox="0 0 1145 1145"><defs><style>.cls-1{fill:none;}.cls-2{fill:#8a8888;}.cls-3{fill:#fff;}.cls-4{fill:#c8d5e8;}.cls-5{fill:#b8b5b5;}.cls-6{fill:#5c5b5b;}.cls-7{fill:#f1f0f0;}.cls-8,.cls-9{fill:#b42125;}.cls-9{fill-rule:evenodd;}</style></defs><title>ppTOP _for_black</title><g id="Layer_2" data-name="Layer 2"><g id="Capa_1" data-name="Capa 1"><rect class="cls-1" width="1145" height="1145"/><path class="cls-2" d="M310.61,498.47q1.17,3,2.6,5.88c-15.52,18.85-16.86,51.77-16.67,65.72.73,51.87,20.1,91.54,25.38,101.41C318.71,686.31,303,761.79,305.41,813c1.12,24.3,4.34,50.44,3.94,75.68a398.51,398.51,0,0,0,101.7,73.47,394.41,394.41,0,0,0,223,40.2L608.92,761.08c-.61-8-1.88-16.21-3.21-25l-.12-.73c-2.34-15.21-5.88-38.2-2.51-48.16C605.89,679,616,670,626.65,660.45c16.73-14.91,42-37.45,47.23-72a21.58,21.58,0,0,1,10.79-15.74c26.09-15,41.05-43.22,41.05-77.41a88.1,88.1,0,0,0-10.3-41.16,52.6,52.6,0,0,0-4.9-8.61l-56.86-86.2-.94-1.27-.26-.41A70.6,70.6,0,0,0,657,323.38l-4.23-37.76c-2-18-9.69-34.07-21.64-45.37a70.36,70.36,0,0,0-103.52,7.05,71.51,71.51,0,0,0-5.19,7.42,70.54,70.54,0,0,0-87.23,38.58,69.72,69.72,0,0,0-16.75.85,70.71,70.71,0,0,0-55.87,50.05,70.57,70.57,0,0,0-40.28,6.51c-32.57,15.89-47.34,56-33.61,91.37Z"/><path class="cls-3" d="M243.44,412.08c98.81-195.23,338-273.66,533.25-174.85,179.94,91.08,260.66,301.43,194.83,486.68h29.73c28.33-85.63,28.62-177.72,0-265C965.89,351.05,890.64,263.42,789.38,212.17S573,152.16,465.1,187.52,269.63,298.13,218.38,399.39a423.08,423.08,0,0,0-43.86,150.17l28,2.75A395.16,395.16,0,0,1,243.44,412.08Z"/><path class="cls-4" d="M1016.82,212.8,939.89,293l-39.73-20.41-12.83-32,71.32-85.3c-71.44-28.15-132.83,14.18-158.8,36.8l-28-26.47-39.73,44.52,11.16,12.38s-36,52.65-51.14,67.28-93.14,48.3-135.88,67.94l-437.24,201,.08.16a60.22,60.22,0,0,0,53.43,107.89L663.74,411.54c43.49-20,83-34.1,153.36-23.78,44.09,6.46,71.78,12.74,98.09,11.12,1.11-.07,2.22-.16,3.33-.26l1.17-.11,2.46-.26,1.17-.14,3.22-.45.37-.06c1.14-.18,2.27-.38,3.4-.59l1.12-.22,2.55-.53,1.13-.25q1.71-.39,3.42-.84l.2-.05q1.77-.47,3.57-1l1.11-.33,2.7-.85,1.12-.37c1.23-.4,2.46-.83,3.7-1.28l.05,0c1.25-.45,2.53-.94,3.81-1.45l1.14-.46c1-.38,1.93-.78,2.9-1.19l1.16-.5c1.32-.56,2.64-1.15,4-1.77C1011.86,363.9,1032.34,282.27,1016.82,212.8ZM163.67,647.37a38.93,38.93,0,1,1,19.11-51.63A38.93,38.93,0,0,1,163.67,647.37Z"/><path class="cls-3" d="M147.45,689.67a77.61,77.61,0,0,1-38.89-144.8,17.18,17.18,0,0,1,3.25-2l437.25-201c7.28-3.34,15.57-7.09,24.34-11.06,33.66-15.21,96.29-43.53,106.73-53.59,9.1-8.78,28.63-35.66,41.08-53.38l-1.94-2.15a17.37,17.37,0,0,1-.06-23.2L758.94,154a17.37,17.37,0,0,1,24.9-1l16.91,16c32-24.13,93.56-57.74,164.26-29.88a17.37,17.37,0,0,1,7,27.3l-64.66,77.34,6.55,16.37,22.44,11.53,68-70.88a17.36,17.36,0,0,1,29.48,8.23c8.22,36.8,7.16,78-2.9,113-11.19,38.88-32.37,67.2-59.64,79.73-1.47.68-2.92,1.32-4.36,1.94l-1.25.54c-1.09.46-2.15.89-3.2,1.32l-1.26.5c-1.43.57-2.84,1.11-4.24,1.62l-.14.05c-1.37.49-2.71.95-4,1.4l-1.25.41c-1,.33-2,.65-3.05.95l-1.25.38c-1.37.4-2.72.78-4.06,1.13l-.3.08c-1.27.33-2.55.63-3.82.92l-1.28.29c-1,.22-2,.42-2.92.61l-1.3.25c-1.28.24-2.58.47-3.88.68l-.37.05c-1.28.2-2.51.37-3.74.53l-1.32.16-2.83.3-1.3.13c-1.27.11-2.53.21-3.8.28-21.9,1.35-44.32-2.23-72.71-6.77-9.08-1.45-18.47-2.95-29-4.49-66.45-9.74-102.78,3.63-143.2,22.19l-490.79,255c-.25.13-.5.26-.76.37A77.38,77.38,0,0,1,147.45,689.67Zm0-99.25a21.56,21.56,0,1,0,9,41.16h0a21.57,21.57,0,0,0-9-41.16Zm15.24-32.63q2.18.62,4.32,1.41a56.31,56.31,0,0,1,33.25,72.34c-.2.54-.41,1.07-.62,1.6l456.14-237,.76-.37c44.3-20.36,87.15-36.31,163.13-25.17,10.72,1.57,20.65,3.15,29.41,4.55,27.3,4.37,47,7.52,65.09,6.41,1-.06,1.92-.14,2.88-.22l1-.1c.72-.06,1.42-.14,2.12-.22l1-.12,2.76-.39.27,0c1-.16,2-.33,3-.51l1-.19,2.18-.46,1-.22c1-.22,1.95-.45,2.94-.71l.25-.06c1-.26,2-.55,3-.85l1-.28,2.35-.74,1-.32c1.1-.36,2.18-.74,3.28-1.14l.11,0c1.1-.4,2.2-.82,3.32-1.26l1-.41,2.6-1.08,1-.44c1.21-.52,2.41-1.05,3.64-1.61,30.85-14.18,50-65.47,47.63-119.24l-51.93,54.16A17.37,17.37,0,0,1,932,308.47l-39.73-20.41a17.41,17.41,0,0,1-8.19-9l-12.82-32a17.36,17.36,0,0,1,2.8-17.6l54.09-64.7c-50.94-8.29-94,20.55-116.84,40.43a17.37,17.37,0,0,1-23.35-.48l-15-14.17-17.44,19.55.72.81a17.37,17.37,0,0,1,1.45,21.43c-3.79,5.54-37.45,54.56-53.43,70-13.7,13.22-56.94,33.31-116.53,60.25-8.73,3.94-17,7.67-24.15,11Z"/><path class="cls-5" d="M947.59,167.6l-55.8,66.76a11.61,11.61,0,0,0-1.88,11.76l4.37,10.9c4.35,10.87-8.31,20.62-17.71,13.64L797.51,212a11.62,11.62,0,0,1-.89-17.93c22-20,77.86-61.89,145-45.15A11.6,11.6,0,0,1,947.59,167.6Z"/><path class="cls-5" d="M964,385c43.36-19.93,64.24-88.75,56.28-153.15a10,10,0,0,0-17.13-5.68l-63.24,65.94-73.07-37.54-87-82.34a10.64,10.64,0,0,0-15.25.64l-26.08,29.23a10.65,10.65,0,0,0,0,14.21l4.77,5.29s-36,52.65-51.14,67.28-93.14,48.3-135.88,67.94l-437.24,201,.08.16a60.22,60.22,0,0,0,53.43,107.89L663.74,410.64c43.49-20,83-34.1,153.36-23.78S916.1,407,964,385ZM165.47,645.58A38.93,38.93,0,1,1,184,597.76,38.94,38.94,0,0,1,165.47,645.58Z"/><path class="cls-2" d="M964,385c43.19-19.85,64.08-88.2,56.38-152.38a10.36,10.36,0,0,0-17.77-5.89l-57.36,59.81A10.36,10.36,0,0,1,933,288.6l-64.88-33.34a10.29,10.29,0,0,1-2.39-1.7L779.64,172a10.36,10.36,0,0,0-14.85.63L738.58,202a10.38,10.38,0,0,0,.29,14.11L911.65,394.47a10.39,10.39,0,0,0,8.48,3.11C934.11,396.17,948,392.37,964,385Z"/><path class="cls-6" d="M780.45,325.83a6.28,6.28,0,0,1-8.87.06l-33.11-32.68a6.27,6.27,0,0,1-.06-8.87l32.68-33.11a6.28,6.28,0,0,1,8.87-.06l33.11,32.68a6.28,6.28,0,0,1,.06,8.87Z"/><path class="cls-7" d="M756.28,292.06a5.75,5.75,0,0,1-8.13.05h0a5.75,5.75,0,0,1,0-8.13l22.76-23.06a5.75,5.75,0,0,1,8.13-.05h0a5.75,5.75,0,0,1,0,8.13Z"/><path class="cls-7" d="M768.48,304.1a5.75,5.75,0,0,1-8.13,0h0a5.75,5.75,0,0,1-.05-8.13L783.06,273a5.75,5.75,0,0,1,8.13,0h0a5.75,5.75,0,0,1,0,8.13Z"/><path class="cls-7" d="M780.68,316.14a5.75,5.75,0,0,1-8.13.05h0a5.75,5.75,0,0,1-.06-8.13L795.26,285a5.74,5.74,0,0,1,8.12-.05h0a5.75,5.75,0,0,1,.06,8.13Z"/><path d="M316.77,496.08a63.12,63.12,0,0,0,4.51,9.28c-14.89,14.13-18.41,44.23-18.13,64.62.81,57.73,25.76,100.49,25.76,100.49S309.43,757.15,312,812.66c1.2,25.77,2.33,47.52,3.8,74a27.87,27.87,0,0,0,3.4,11.51,395.91,395.91,0,0,0,49.29,39.05c25.33,13.13,57.5,25.76,91.32,38,63.16,22.91,147.25,27.27,165.68,28l3.63-.35L602.34,761.69c-.61-8-1.91-16.37-3.28-25.28-2.59-16.8-6.13-39.8-2.24-51.29,3.37-9.93,14.09-19.49,25.43-29.6,16.78-15,40.24-35.88,45.1-68.09a28.27,28.27,0,0,1,14-20.49c24.82-14.28,37.74-41.06,37.74-71.68A81.48,81.48,0,0,0,709.48,457a46.34,46.34,0,0,0-4.42-7.8l-56.92-86.29-.85-1.13c-.75-1.18-1.55-2.32-2.39-3.39a63.58,63.58,0,0,0,5.57-34.29l-4.23-37.75c-1.74-15.57-8.23-30.54-19.61-41.31a63.75,63.75,0,0,0-93.81,6.37A64.13,64.13,0,0,0,525.45,263a64,64,0,0,0-85.92,37.44,63.85,63.85,0,0,0-71.94,51.42,63.45,63.45,0,0,0-42.36,4.82c-30.24,14.75-42.53,51.68-30.35,83Z"/><rect class="cls-8" x="340.34" y="383.81" width="55.9" height="119.33" rx="24.72" ry="24.72" transform="translate(-135.52 163.32) rotate(-21.21)"/><rect class="cls-8" x="413.92" y="334.88" width="55.9" height="151.99" rx="24.72" ry="24.72" transform="translate(-62.58 79.82) rotate(-9.64)"/><rect class="cls-8" x="478.25" y="293.28" width="55.9" height="107.6" rx="24.72" ry="24.72" transform="translate(-35.55 58.62) rotate(-6.4)"/><rect class="cls-8" x="560.49" y="263.11" width="55.9" height="96.18" rx="24.72" ry="24.72" transform="translate(-31.03 67.56) rotate(-6.4)"/><path class="cls-3" d="M652.52,773.38A11.47,11.47,0,0,1,641,761.89a11.62,11.62,0,0,1,11.49-11.67H770.13a11.62,11.62,0,0,1,11.49,11.67,11.47,11.47,0,0,1-11.49,11.49H722.91V879.31a11.59,11.59,0,1,1-23.17,0V773.38Z"/><path class="cls-3" d="M780.74,821.49c0-43.15,35-78.17,77.82-78.17a78.08,78.08,0,0,1,0,156.15C815.76,899.47,780.74,864.46,780.74,821.49Zm23.17,0a54.74,54.74,0,1,0,54.65-55A54.83,54.83,0,0,0,803.91,821.49Z"/><path class="cls-3" d="M1034.18,750.39a40.94,40.94,0,1,1,0,81.88H977.42v47.22a11.59,11.59,0,0,1-23.17,0V761.89a11.47,11.47,0,0,1,11.49-11.5Zm0,58.72a17.78,17.78,0,1,0,0-35.55H977.42v35.55Z"/><path class="cls-3" d="M694.5,590.54a11.61,11.61,0,0,1,11.67-11.49,11.4,11.4,0,0,1,11,8.13,50.12,50.12,0,1,1,27.24,92.14,49.68,49.68,0,0,1-26.71-7.78v31.65a11.47,11.47,0,0,1-11.49,11.5,11.62,11.62,0,0,1-11.67-11.5Zm23.16,42.27a27.06,27.06,0,1,0,0-7.08Z"/><path class="cls-3" d="M805.38,590.54a11.62,11.62,0,0,1,11.67-11.49,11.42,11.42,0,0,1,11,8.13,50.12,50.12,0,1,1,27.23,92.14,49.67,49.67,0,0,1-26.7-7.78v31.65a11.48,11.48,0,0,1-11.5,11.5,11.63,11.63,0,0,1-11.67-11.5Zm23.17,42.27a27.06,27.06,0,1,0,0-7.08Z"/><path class="cls-9" d="M684.88,473.13a27,27,0,0,0-1.66-3.22l-.38-.53c-.17-.26-.35-.5-.53-.75l-59.77-84.95c-.24-.34-.55-.59-.81-.92a26.89,26.89,0,0,0-1.51-2.36h0A27.92,27.92,0,0,0,585.37,373a30.46,30.46,0,0,0-6.32,3.4,31.16,31.16,0,0,0-5.72,5.44l-22.75,18a55.52,55.52,0,0,1-38.5,62.49c.5.77,1,1.53,1.61,2.27,9.57,12.11,35,7.95,47.14-1.62l24.83-19.61,5.64,9.49c6.49,10.94,7.83,23.77,6.07,36.37a43.66,43.66,0,0,0-.42,6.09,46.52,46.52,0,0,0,1.93,12.61,91.06,91.06,0,0,0-36.36-16.22c-39.49-7.86-75.68,9.23-95.83,38.3-5.7,8.23-17.11,9.65-24.18,2.57A66.55,66.55,0,1,0,440,629.11c7.29-6.56,18.55-5.51,23.73,2.82l.29.45c5.34,8.59.06,19.68-10,20.27A111.1,111.1,0,0,0,413.49,663c-45.9,21.27-72.15,70.56-68.27,121L354,927a402,402,0,0,0,57.08,35.14,394.19,394.19,0,0,0,185.81,42.63L570.2,764.43c-1.86-24.24-12.92-63.64-3.71-90.81,15.28-45,78.49-57.8,68.4-109.37l0-.27c-2.14-10.86,5.49-20.74,16.43-22.44.36,0,.73-.11,1.09-.18,16.39-2.9,30.18-15.08,35.65-30.79A45.31,45.31,0,0,0,684.88,473.13Z"/><path class="cls-9" d="M508,451a43.75,43.75,0,0,0,31.48-41.93c0-.18,0-.35,0-.52L518.3,425.28A27.88,27.88,0,0,0,508,451Z"/><path class="cls-3" d="M812.12,924.91c-114.54,73.41-263.92,86.17-393.83,20.42C308.57,889.8,232,788.67,208.11,667.87l-27.55,5.44a428.93,428.93,0,0,0,76.16,171.94A420.63,420.63,0,0,0,405.6,970.39a425.86,425.86,0,0,0,455.34-45.48Z"/></g></g></svg>